<svg width="168" height="48" viewBox="0 0 168 48" fill="none" xmlns="http://www.w3.org/2000/svg">
<path fill-rule="evenodd" clip-rule="evenodd" d="M27.9703 0C34.1118 0 39.0294 2.36649 42.7232 7.09953C46.417 11.8326 47.6853 17.5032 46.5282 24.1116C45.3266 30.8093 42.2782 36.279 37.3828 40.5209C32.4874 44.7628 26.613 46.8837 19.7595 46.8837H0.734314L8.94518 0H27.9703ZM34.9129 23.2409C35.4914 19.7135 34.9574 16.8893 33.3107 14.7684C31.6641 12.6474 29.2164 11.587 25.9677 11.587H19.2254L15.0199 35.2967H21.4284C24.8106 35.2967 27.7367 34.1916 30.2066 31.9814C32.6766 29.7712 34.2453 26.8577 34.9129 23.2409ZM66.6882 47.8884C60.9918 47.8884 56.5971 46.3479 53.5041 43.267C50.4111 40.186 49.2874 36.2568 50.133 31.4791L55.6737 0H67.6228L62.2824 30.3405C61.5703 34.2698 63.4172 36.2344 67.8231 36.2344C72.1844 36.2344 74.7211 34.2698 75.4331 30.3405L80.7068 0H92.6559L87.1152 31.4791C86.1807 36.7479 83.8665 40.8 80.1727 43.6353C76.4789 46.4707 71.9841 47.8884 66.6882 47.8884ZM129.371 11.587H112.616L111.281 19.2223H127.636L125.633 30.8093H109.211L106.407 46.8837H94.4583L102.669 0H131.374L129.371 11.587ZM154.337 46.8837L153.603 40.1191H138.049L134.845 46.8837H121.694L145.326 0H159.878L167.088 46.8837H154.337ZM142.989 29.8047H152.468L150.733 13.5963L142.989 29.8047Z" fill="white"/>
<path fill-rule="evenodd" clip-rule="evenodd" d="M19.0252 0C25.4782 0 30.8742 2.2437 35.2132 6.73116C39.5523 11.2186 41.7219 16.7888 41.7219 23.4419C41.7219 30.0949 39.5523 35.6651 35.2132 40.1526C30.8742 44.64 25.4782 46.8837 19.0252 46.8837H0V0H19.0252ZM19.0252 35.2967C22.2739 35.2967 24.9218 34.214 26.969 32.0484C29.0162 29.8828 30.0397 27.014 30.0397 23.4419C30.0397 19.8698 29.0162 17.0009 26.969 14.8353C24.9218 12.6698 22.2739 11.587 19.0252 11.587H12.2829V35.2967H19.0252ZM79.6832 43.4009C76.2564 46.3926 71.8284 47.8884 66.3989 47.8884C60.9695 47.8884 56.5303 46.3926 53.0813 43.4009C49.6323 40.4093 47.9078 36.4354 47.9078 31.4791V0H59.857V30.3405C59.857 34.2698 62.0376 36.2344 66.3989 36.2344C70.7603 36.2344 72.9409 34.2698 72.9409 30.3405V0H84.8901V31.4791C84.8901 36.4354 83.1545 40.4093 79.6832 43.4009ZM122.696 11.587H105.94V19.2223H122.362V30.8093H105.94V46.8837H93.991V0H122.696V11.587ZM153.737 46.8837L151.734 40.1191H136.18L134.177 46.8837H121.227L136.647 0H151.2L166.62 46.8837H153.737ZM139.251 29.8047H148.663L143.924 13.8642L139.251 29.8047Z" fill="white"/>
</svg>
