<svg width="168" height="48" viewBox="0 0 168 48" fill="none" xmlns="http://www.w3.org/2000/svg"><path fill-rule="evenodd" clip-rule="evenodd" d="M27.97 0c6.142 0 11.06 2.366 14.753 7.1 3.694 4.733 4.962 10.403 3.805 17.012-1.201 6.697-4.25 12.167-9.145 16.409-4.896 4.242-10.77 6.363-17.624 6.363H.735L8.945 0H27.97zm6.943 23.24c.578-3.526.044-6.35-1.602-8.472-1.647-2.12-4.095-3.181-7.343-3.181h-6.743l-4.205 23.71h6.408c3.383 0 6.309-1.105 8.779-3.316 2.47-2.21 4.038-5.123 4.706-8.74zm31.775 24.648c-5.696 0-10.09-1.54-13.184-4.621-3.093-3.081-4.217-7.01-3.371-11.788L55.673 0h11.95l-5.34 30.34c-.713 3.93 1.134 5.894 5.54 5.894 4.361 0 6.898-1.964 7.61-5.894L80.707 0h11.949l-5.54 31.48c-.935 5.268-3.25 9.32-6.943 12.155-3.694 2.836-8.189 4.253-13.485 4.253zm62.683-36.301h-16.755l-1.335 7.635h16.355l-2.003 11.587h-16.422l-2.804 16.075H94.458L102.67 0h28.705l-2.003 11.587zm24.966 35.297l-.734-6.765h-15.554l-3.204 6.765h-13.151L145.326 0h14.552l7.21 46.884h-12.751zm-11.348-17.08h9.479l-1.735-16.208-7.744 16.209z" fill="#fff"/><path fill-rule="evenodd" clip-rule="evenodd" d="M19.025 0c6.453 0 11.85 2.244 16.188 6.731 4.34 4.488 6.509 10.058 6.509 16.71 0 6.654-2.17 12.224-6.509 16.712-4.339 4.487-9.735 6.73-16.188 6.73H0V0h19.025zm0 35.297c3.249 0 5.897-1.083 7.944-3.249 2.047-2.165 3.07-5.034 3.07-8.606S29.017 17 26.97 14.835c-2.047-2.165-4.695-3.248-7.944-3.248h-6.742v23.71h6.742zM79.683 43.4c-3.427 2.992-7.855 4.487-13.284 4.487-5.43 0-9.869-1.495-13.318-4.487s-5.173-6.966-5.173-11.922V0h11.949v30.34c0 3.93 2.18 5.894 6.542 5.894 4.361 0 6.542-1.964 6.542-5.894V0h11.95v31.48c0 4.955-1.737 8.93-5.208 11.92zm43.013-31.814H105.94v7.635h16.422V30.81H105.94v16.075H93.991V0h28.705v11.587zm31.041 35.297l-2.003-6.765H136.18l-2.003 6.765h-12.95L136.647 0H151.2l15.42 46.884h-12.883zm-14.486-17.08h9.412l-4.739-15.94-4.673 15.94z" fill="#fff"/></svg>